<?xml version="1.0" standalone="no"?>
<!DOCTYPE svg PUBLIC "-//W3C//DTD SVG 20010904//EN"
 "http://www.w3.org/TR/2001/REC-SVG-20010904/DTD/svg10.dtd">
<svg version="1.0" xmlns="http://www.w3.org/2000/svg"
 width="1024.000000pt" height="768.000000pt" viewBox="0 0 1024.000000 768.000000"
 preserveAspectRatio="xMidYMid meet">

<g transform="translate(0.000000,768.000000) scale(0.100000,-0.100000)"
fill="#000000" stroke="none">
<path d="M3818 5112 c-31 -4 -61 -12 -66 -17 -23 -24 -89 -337 -137 -650 -14
-93 -28 -181 -30 -195 -2 -14 -16 -101 -29 -195 -14 -93 -28 -186 -31 -205
-19 -121 -45 -330 -45 -362 0 -21 4 -38 9 -38 13 0 85 98 111 150 83 168 215
250 305 190 35 -23 58 -25 77 -7 7 7 19 12 26 11 6 -1 18 -2 25 -3 8 0 14 -8
14 -16 0 -8 -4 -12 -9 -9 -16 10 -8 -9 18 -43 14 -18 22 -33 18 -33 -3 0 -1
-6 5 -14 8 -10 9 -16 1 -21 -6 -3 -8 -11 -4 -16 3 -5 8 -7 12 -5 4 2 7 -16 6
-41 0 -33 -6 -51 -21 -62 -16 -14 -17 -19 -7 -29 14 -13 30 1 19 17 -3 5 -1
12 5 16 5 3 10 1 10 -4 0 -15 40 -13 67 2 30 16 98 108 135 182 37 73 97 162
129 192 13 12 45 31 72 42 62 27 62 28 17 294 -94 555 -161 846 -198 863 -22
9 -431 14 -504 6z"/>
<path d="M4939 5104 c-34 -10 -59 -476 -59 -1120 0 -480 0 -478 72 -404 135
139 227 253 242 298 21 62 42 92 67 92 31 0 33 -23 14 -158 -33 -238 -20 -432
30 -432 37 0 43 52 47 402 1 185 0 340 -5 344 -4 4 -18 -3 -31 -16 -48 -44
-115 6 -88 65 9 20 19 25 48 25 21 0 45 -7 55 -16 16 -15 18 -12 25 43 14 117
-13 853 -33 873 -6 6 -363 10 -384 4z"/>
<path d="M6180 5102 c-22 -7 -26 -15 -34 -77 -12 -101 -13 -953 0 -989 l10
-29 46 64 c77 109 180 189 241 189 34 0 70 -32 93 -81 l19 -43 8 40 c20 104
13 902 -9 923 -9 9 -346 11 -374 3z"/>
<path d="M6384 4141 c-64 -46 -188 -224 -220 -314 -15 -42 -20 -307 -6 -307 4
0 18 20 31 45 35 66 90 137 193 248 l91 99 5 77 c5 87 -10 156 -37 171 -15 7
-27 3 -57 -19z"/>
<path d="M4499 3860 c-22 -13 -104 -137 -130 -196 -71 -164 -78 -351 -15 -403
32 -26 96 -31 161 -10 113 35 147 70 146 149 0 63 -34 202 -57 230 -6 8 -16
54 -22 102 -13 117 -38 155 -83 128z"/>
<path d="M6546 3795 c-53 -208 -169 -409 -274 -476 -45 -29 -64 -31 -104 -14
-26 10 -36 -42 -50 -265 -15 -212 -5 -379 26 -452 14 -33 21 -38 63 -45 59
-10 760 -7 903 4 l105 8 0 185 0 185 -155 12 c-396 29 -416 33 -438 76 -18 34
-30 161 -42 428 -14 303 -23 397 -34 354z"/>
<path d="M3997 3760 c3 -11 10 -23 16 -27 7 -4 8 0 4 11 -4 10 -7 22 -7 27 0
5 -4 9 -9 9 -5 0 -7 -9 -4 -20z"/>
<path d="M3764 3688 c-44 -39 -77 -90 -104 -160 -41 -109 -21 -129 55 -57 87
82 141 179 128 229 -8 29 -37 25 -79 -12z"/>
<path d="M6354 3648 c-65 -69 -132 -193 -120 -223 8 -22 25 -11 74 49 71 86
116 192 87 203 -6 2 -25 -11 -41 -29z"/>
<path d="M5039 3548 c-58 -62 -114 -126 -125 -143 -30 -44 -52 -116 -65 -214
-7 -57 -16 -90 -27 -98 -14 -12 -14 -13 2 -13 15 0 16 -3 7 -14 -8 -10 -9 -16
-1 -21 15 -9 1 -28 -16 -21 -21 8 -42 -3 -40 -22 2 -9 9 -17 17 -18 34 -2 40
-5 34 -14 -3 -5 -11 -7 -19 -4 -7 3 -13 -2 -13 -10 0 -9 9 -18 19 -22 16 -5
22 -16 19 -36 0 -4 4 -19 9 -34 6 -15 20 -70 31 -123 11 -53 28 -117 37 -143
l16 -46 73 -11 c101 -15 660 -15 703 0 l33 12 -7 120 c-3 66 -6 149 -6 184 0
63 -1 64 -32 77 -18 8 -80 22 -138 31 -154 25 -152 24 -174 155 -3 19 -8 57
-11 84 -8 67 -18 83 -59 90 -89 17 -127 89 -134 254 -3 75 -8 112 -16 112 -6
0 -59 -51 -117 -112z m-229 -538 c0 -5 -4 -10 -10 -10 -5 0 -10 5 -10 10 0 6
5 10 10 10 6 0 10 -4 10 -10z"/>
<path d="M3795 3427 c-46 -47 -100 -92 -127 -105 -56 -27 -68 -56 -48 -111 41
-114 92 -124 220 -44 63 40 185 155 206 195 8 15 14 44 14 66 0 36 -2 38 -29
36 -15 -1 -38 -5 -49 -8 -32 -10 -61 9 -55 36 3 17 2 19 -5 9 -7 -9 -12 -10
-16 -2 -14 22 -32 10 -111 -72z"/>
<path d="M4055 3256 c-125 -127 -162 -158 -219 -187 -85 -42 -167 -47 -212
-14 -40 31 -83 114 -95 186 -15 92 -15 92 -39 77 -27 -17 -53 -90 -78 -223
-24 -120 -60 -398 -64 -485 l-3 -55 184 0 185 0 13 50 c8 28 23 86 34 130 33
135 58 199 81 214 12 7 49 16 82 18 77 6 263 -12 282 -28 8 -6 30 -64 50 -128
20 -64 46 -147 58 -186 l23 -70 54 -8 c75 -11 335 -5 349 9 6 6 16 69 21 140
5 71 11 143 12 159 1 17 6 33 11 37 6 4 5 12 -2 20 -7 9 -7 19 -2 28 6 10 4
23 -6 38 -9 13 -13 30 -10 37 5 15 -21 103 -35 119 -4 5 -4 16 1 25 6 13 0 21
-29 38 l-38 22 -83 -30 c-127 -44 -224 -38 -283 18 -39 37 -53 67 -67 141 -7
34 -15 62 -19 61 -3 0 -73 -69 -156 -153z"/>
<path d="M5909 2933 c-26 -4 -27 -7 -48 -141 -11 -75 -24 -160 -27 -188 l-6
-52 38 -6 c22 -3 56 -2 77 2 34 6 41 12 53 47 7 22 17 87 20 145 5 90 4 111
-12 148 -10 23 -24 42 -31 42 -6 0 -17 2 -25 3 -7 2 -25 2 -39 0z"/>
</g>
</svg>
